# xmcd
#
# Track frame offsets:
#	150
#	8544
#	18775
#	31819
#	46920
#	56106
#	64013
#	82041
#	95376
#	109533
#	123369
#	130773
#	147659
#
# Disc length: 2084 seconds
#
# Revision: 1
# Processed by: cddbd v1.5.2PL0 Copyright (c) Steve Scherf et al.
# Submitted via: audiograbber 1.83.01
#
DISCID=a108220d
DTITLE=Mundharmonikagruppe Eschhofen e.V. - Im schoensten Wiesengrunde
DYEAR=1998
DGENRE=Volksmusik
TTITLE0=Im schoensten Wiesengrunde
TTITLE1=Wahre Freundschaft
TTITLE2=Aloa Oe
TTITLE3=Hessenland Du Bist Mein Heimatland
TTITLE4=La Montanara
TTITLE5=Du Schwarzer Zigeuner
TTITLE6=Ein Schlafsack Und Eine Gitarre
TTITLE7=Amazing Grace
TTITLE8=The Spanisch Night Is Over
TTITLE9=Aus Boehmen Kommt Die Musik
TTITLE10=The Little Drummer Boy
TTITLE11=Sehnsucht
TTITLE12=Nehmt Abschied Brueder
EXTD=
EXTT0=
EXTT1=
EXTT2=
EXTT3=
EXTT4=
EXTT5=
EXTT6=
EXTT7=
EXTT8=
EXTT9=
EXTT10=
EXTT11=
EXTT12=
PLAYORDER=
